<svg width="278" height="220" viewBox="0 0 278 220" fill="none" xmlns="http://www.w3.org/2000/svg">
<path fill-rule="evenodd" clip-rule="evenodd" d="M115.473 64.4095L142.138 137.281H72.4475L98.96 64.7125C100.273 61.3795 101.637 57.491 103.051 53.047C104.465 48.502 105.828 43.654 107.141 38.503C108.555 43.654 109.969 48.4515 111.383 52.8955C112.797 57.3395 114.16 61.1775 115.473 64.4095ZM182.588 220H214.1L192.888 166H236.775V220H277.68V0.930984H236.775V137H181.497L128.048 0.930984H86.537L0.333496 220H32.1485C35.5825 220 38.461 219.04 40.784 217.122C43.107 215.202 44.6725 213.081 45.4805 210.758L61.8425 166.066H152.591L168.953 210.758C170.064 213.385 171.73 215.607 173.953 217.424C176.175 219.141 179.053 220 182.588 220Z" fill="black"/>
</svg>
