<svg width="500" height="500" viewBox="0 0 500 500" fill="none" xmlns="http://www.w3.org/2000/svg">
<circle cx="250" cy="250" r="250" fill="#2F2F2F"/>
<path d="M266.211 290.727H233.594L231.055 86.625H268.945L266.211 290.727ZM229.688 352.836C229.688 346.977 231.445 342.094 234.961 338.188C238.607 334.151 243.945 332.133 250.977 332.133C258.008 332.133 263.346 334.151 266.992 338.188C270.638 342.094 272.461 346.977 272.461 352.836C272.461 358.695 270.638 363.578 266.992 367.484C263.346 371.26 258.008 373.148 250.977 373.148C243.945 373.148 238.607 371.26 234.961 367.484C231.445 363.578 229.688 358.695 229.688 352.836Z" fill="#E8E8E8"/>
</svg>
