<svg width="621" height="389" viewBox="0 0 621 389" fill="none" xmlns="http://www.w3.org/2000/svg">
<path d="M306.144 74.192L241.344 284H197.28L157.824 153.968C157.056 151.952 156.336 149.744 155.664 147.344C154.992 144.848 154.32 142.256 153.648 139.568C152.976 142.256 152.304 144.848 151.632 147.344C150.96 149.744 150.24 151.952 149.472 153.968L109.44 284H65.376L0.576 74.192H41.472C45.696 74.192 49.2 75.152 51.984 77.072C54.864 78.992 56.736 81.536 57.6 84.704L86.4 194.144C87.264 197.6 88.128 201.392 88.992 205.52C89.856 209.552 90.72 213.776 91.584 218.192C93.312 209.168 95.424 201.152 97.92 194.144L131.904 84.704C132.768 82.016 134.592 79.616 137.376 77.504C140.256 75.296 143.712 74.192 147.744 74.192H162.144C166.368 74.192 169.776 75.2 172.368 77.216C174.96 79.136 176.928 81.632 178.272 84.704L211.968 194.144C214.464 200.864 216.576 208.496 218.304 217.04C219.072 212.72 219.84 208.688 220.608 204.944C221.472 201.104 222.336 197.504 223.2 194.144L252 84.704C252.768 81.92 254.592 79.472 257.472 77.36C260.352 75.248 263.808 74.192 267.84 74.192H306.144ZM376.108 284H327.148V74.192H376.108V284ZM599.753 74.192V284H574.409C570.665 284 567.497 283.424 564.905 282.272C562.409 281.024 559.913 278.912 557.417 275.936L458.489 150.8C458.873 154.544 459.113 158.192 459.209 161.744C459.401 165.2 459.497 168.464 459.497 171.536V284H416.585V74.192H442.217C444.329 74.192 446.105 74.288 447.545 74.48C448.985 74.672 450.281 75.056 451.433 75.632C452.585 76.112 453.689 76.832 454.745 77.792C455.801 78.752 457.001 80.048 458.345 81.68L558.137 207.68C557.657 203.648 557.321 199.76 557.129 196.016C556.937 192.176 556.841 188.576 556.841 185.216V74.192H599.753Z" fill="#141313"/>
<path d="M50.076 340.7C50.796 340.028 51.54 339.404 52.308 338.828C53.076 338.252 53.892 337.772 54.756 337.388C55.644 336.98 56.592 336.668 57.6 336.452C58.632 336.212 59.748 336.092 60.948 336.092C62.988 336.092 64.788 336.452 66.348 337.172C67.932 337.868 69.264 338.852 70.344 340.124C71.424 341.372 72.24 342.872 72.792 344.624C73.344 346.352 73.62 348.236 73.62 350.276V374H62.46V350.276C62.46 348.452 62.04 347.036 61.2 346.028C60.36 344.996 59.124 344.48 57.492 344.48C56.268 344.48 55.116 344.744 54.036 345.272C52.98 345.776 51.948 346.472 50.94 347.36V374H39.78V336.668H46.692C48.084 336.668 48.996 337.292 49.428 338.54L50.076 340.7ZM98.0505 336.092C100.883 336.092 103.463 336.536 105.791 337.424C108.119 338.312 110.111 339.584 111.767 341.24C113.447 342.896 114.743 344.912 115.655 347.288C116.591 349.64 117.059 352.292 117.059 355.244C117.059 358.22 116.591 360.908 115.655 363.308C114.743 365.684 113.447 367.712 111.767 369.392C110.111 371.048 108.119 372.332 105.791 373.244C103.463 374.132 100.883 374.576 98.0505 374.576C95.1945 374.576 92.5905 374.132 90.2385 373.244C87.9105 372.332 85.8945 371.048 84.1905 369.392C82.5105 367.712 81.2025 365.684 80.2665 363.308C79.3545 360.908 78.8985 358.22 78.8985 355.244C78.8985 352.292 79.3545 349.64 80.2665 347.288C81.2025 344.912 82.5105 342.896 84.1905 341.24C85.8945 339.584 87.9105 338.312 90.2385 337.424C92.5905 336.536 95.1945 336.092 98.0505 336.092ZM98.0505 366.296C100.619 366.296 102.503 365.396 103.703 363.596C104.927 361.772 105.539 359.012 105.539 355.316C105.539 351.62 104.927 348.872 103.703 347.072C102.503 345.272 100.619 344.372 98.0505 344.372C95.4105 344.372 93.4785 345.272 92.2545 347.072C91.0305 348.872 90.4185 351.62 90.4185 355.316C90.4185 359.012 91.0305 361.772 92.2545 363.596C93.4785 365.396 95.4105 366.296 98.0505 366.296ZM176.911 336.668L165.319 374H156.247C155.767 374 155.359 373.856 155.023 373.568C154.687 373.28 154.423 372.8 154.231 372.128L148.903 353.516C148.639 352.676 148.399 351.848 148.183 351.032C147.991 350.216 147.811 349.388 147.643 348.548C147.475 349.388 147.283 350.228 147.067 351.068C146.875 351.908 146.647 352.748 146.383 353.588L140.983 372.128C140.623 373.376 139.831 374 138.607 374H129.967L118.375 336.668H127.303C128.095 336.668 128.755 336.86 129.283 337.244C129.835 337.604 130.207 338.06 130.399 338.612L134.143 355.352C134.455 356.624 134.731 357.86 134.971 359.06C135.211 360.236 135.427 361.424 135.619 362.624C135.931 361.424 136.255 360.236 136.591 359.06C136.951 357.86 137.335 356.624 137.743 355.352L142.423 338.576C142.615 338.024 142.975 337.568 143.503 337.208C144.031 336.824 144.655 336.632 145.375 336.632H150.343C151.135 336.632 151.795 336.824 152.323 337.208C152.875 337.568 153.247 338.024 153.439 338.576L157.903 355.352C158.263 356.624 158.611 357.86 158.947 359.06C159.307 360.26 159.631 361.472 159.919 362.696C160.111 361.496 160.339 360.296 160.603 359.096C160.867 357.896 161.167 356.648 161.503 355.352L165.463 338.612C165.655 338.06 166.015 337.604 166.543 337.244C167.071 336.86 167.695 336.668 168.415 336.668H176.911ZM207.567 336.668V374H196.407V336.668H207.567ZM208.719 326.444C208.719 327.332 208.539 328.172 208.179 328.964C207.819 329.732 207.327 330.416 206.703 331.016C206.079 331.592 205.347 332.06 204.507 332.42C203.691 332.756 202.815 332.924 201.879 332.924C200.967 332.924 200.115 332.756 199.323 332.42C198.531 332.06 197.823 331.592 197.199 331.016C196.599 330.416 196.119 329.732 195.759 328.964C195.423 328.172 195.255 327.332 195.255 326.444C195.255 325.532 195.423 324.68 195.759 323.888C196.119 323.096 196.599 322.4 197.199 321.8C197.823 321.2 198.531 320.732 199.323 320.396C200.115 320.06 200.967 319.892 201.879 319.892C202.815 319.892 203.691 320.06 204.507 320.396C205.347 320.732 206.079 321.2 206.703 321.8C207.327 322.4 207.819 323.096 208.179 323.888C208.539 324.68 208.719 325.532 208.719 326.444ZM228.706 374.576C226.93 374.576 225.358 374.324 223.99 373.82C222.646 373.292 221.506 372.56 220.57 371.624C219.658 370.664 218.962 369.512 218.482 368.168C218.002 366.824 217.762 365.324 217.762 363.668V344.372H214.594C214.018 344.372 213.526 344.192 213.118 343.832C212.71 343.448 212.506 342.896 212.506 342.176V337.82L218.446 336.668L220.642 327.56C220.93 326.408 221.746 325.832 223.09 325.832H228.922V336.74H238.174V344.372H228.922V362.912C228.922 363.776 229.126 364.496 229.534 365.072C229.966 365.624 230.578 365.9 231.37 365.9C231.778 365.9 232.114 365.864 232.378 365.792C232.666 365.696 232.906 365.6 233.098 365.504C233.314 365.384 233.506 365.288 233.674 365.216C233.866 365.12 234.082 365.072 234.322 365.072C234.658 365.072 234.922 365.156 235.114 365.324C235.33 365.468 235.546 365.708 235.762 366.044L239.146 371.336C237.706 372.416 236.086 373.232 234.286 373.784C232.486 374.312 230.626 374.576 228.706 374.576ZM251.911 321.548V331.844L250.903 337.532C250.687 338.828 250.303 339.824 249.751 340.52C249.199 341.192 248.287 341.528 247.015 341.528C245.935 341.528 245.095 341.192 244.495 340.52C243.895 339.824 243.463 338.828 243.199 337.532L242.191 331.844V321.548H251.911ZM281.262 344.84C280.974 345.296 280.662 345.62 280.326 345.812C280.014 346.004 279.606 346.1 279.102 346.1C278.574 346.1 278.046 345.992 277.518 345.776C276.99 345.536 276.414 345.284 275.79 345.02C275.19 344.756 274.506 344.516 273.738 344.3C272.97 344.06 272.094 343.94 271.11 343.94C269.694 343.94 268.602 344.216 267.834 344.768C267.09 345.296 266.718 346.04 266.718 347C266.718 347.696 266.958 348.272 267.438 348.728C267.942 349.184 268.602 349.592 269.418 349.952C270.234 350.288 271.158 350.612 272.19 350.924C273.222 351.236 274.278 351.584 275.358 351.968C276.438 352.352 277.494 352.808 278.526 353.336C279.558 353.84 280.482 354.476 281.298 355.244C282.114 355.988 282.762 356.9 283.242 357.98C283.746 359.06 283.998 360.356 283.998 361.868C283.998 363.716 283.662 365.42 282.99 366.98C282.318 368.54 281.31 369.884 279.966 371.012C278.646 372.14 277.002 373.016 275.034 373.64C273.09 374.264 270.846 374.576 268.302 374.576C267.03 374.576 265.758 374.456 264.486 374.216C263.214 373.976 261.978 373.652 260.778 373.244C259.602 372.836 258.51 372.356 257.502 371.804C256.494 371.228 255.63 370.616 254.91 369.968L257.502 365.864C257.79 365.384 258.15 365.012 258.582 364.748C259.038 364.46 259.614 364.316 260.31 364.316C260.958 364.316 261.534 364.46 262.038 364.748C262.566 365.036 263.13 365.348 263.73 365.684C264.33 366.02 265.026 366.332 265.818 366.62C266.634 366.908 267.654 367.052 268.878 367.052C269.742 367.052 270.474 366.968 271.074 366.8C271.674 366.608 272.154 366.356 272.514 366.044C272.874 365.732 273.138 365.384 273.306 365C273.474 364.616 273.558 364.22 273.558 363.812C273.558 363.068 273.306 362.456 272.802 361.976C272.298 361.496 271.638 361.088 270.822 360.752C270.006 360.392 269.07 360.068 268.014 359.78C266.982 359.468 265.926 359.12 264.846 358.736C263.766 358.352 262.698 357.896 261.642 357.368C260.61 356.816 259.686 356.132 258.87 355.316C258.054 354.476 257.394 353.456 256.89 352.256C256.386 351.056 256.134 349.604 256.134 347.9C256.134 346.316 256.434 344.816 257.034 343.4C257.658 341.96 258.582 340.7 259.806 339.62C261.03 338.54 262.566 337.688 264.414 337.064C266.262 336.416 268.422 336.092 270.894 336.092C272.238 336.092 273.534 336.212 274.782 336.452C276.054 336.692 277.242 337.028 278.346 337.46C279.45 337.892 280.458 338.408 281.37 339.008C282.282 339.584 283.086 340.22 283.782 340.916L281.262 344.84ZM346.62 374H335.46V344.372H319.836V362.912C319.836 363.776 320.04 364.496 320.448 365.072C320.88 365.624 321.492 365.9 322.284 365.9C322.692 365.9 323.028 365.864 323.292 365.792C323.58 365.696 323.82 365.6 324.012 365.504C324.228 365.384 324.42 365.288 324.588 365.216C324.78 365.12 324.996 365.072 325.236 365.072C325.572 365.072 325.836 365.156 326.028 365.324C326.244 365.468 326.46 365.708 326.676 366.044L330.06 371.336C328.62 372.416 327 373.232 325.2 373.784C323.4 374.312 321.54 374.576 319.62 374.576C317.844 374.576 316.272 374.324 314.904 373.82C313.56 373.292 312.42 372.56 311.484 371.624C310.572 370.664 309.876 369.512 309.396 368.168C308.916 366.824 308.676 365.324 308.676 363.668V344.372H305.508C304.932 344.372 304.44 344.192 304.032 343.832C303.624 343.448 303.42 342.896 303.42 342.176V337.82L309.36 336.632L311.556 327.56C311.844 326.408 312.66 325.832 314.004 325.832H319.836V336.74H346.62V374ZM348.168 326.408C348.168 327.296 347.988 328.136 347.628 328.928C347.268 329.72 346.776 330.416 346.152 331.016C345.528 331.592 344.796 332.048 343.956 332.384C343.14 332.72 342.264 332.888 341.328 332.888C340.416 332.888 339.564 332.72 338.772 332.384C337.98 332.048 337.272 331.592 336.648 331.016C336.048 330.416 335.568 329.72 335.208 328.928C334.872 328.136 334.704 327.296 334.704 326.408C334.704 325.52 334.872 324.68 335.208 323.888C335.568 323.072 336.048 322.376 336.648 321.8C337.272 321.2 337.98 320.732 338.772 320.396C339.564 320.036 340.416 319.856 341.328 319.856C342.264 319.856 343.14 320.036 343.956 320.396C344.796 320.732 345.528 321.2 346.152 321.8C346.776 322.376 347.268 323.072 347.628 323.888C347.988 324.68 348.168 325.52 348.168 326.408ZM354.428 374V336.668H361.34C362.732 336.668 363.644 337.292 364.076 338.54L364.688 340.556C365.312 339.908 365.96 339.32 366.632 338.792C367.304 338.24 368.024 337.772 368.792 337.388C369.584 336.98 370.424 336.668 371.312 336.452C372.224 336.212 373.22 336.092 374.3 336.092C376.556 336.092 378.416 336.68 379.88 337.856C381.368 339.008 382.496 340.556 383.264 342.5C383.888 341.348 384.644 340.364 385.532 339.548C386.444 338.732 387.416 338.072 388.448 337.568C389.504 337.064 390.608 336.692 391.76 336.452C392.936 336.212 394.1 336.092 395.252 336.092C397.388 336.092 399.284 336.416 400.94 337.064C402.596 337.688 403.976 338.612 405.08 339.836C406.208 341.036 407.06 342.524 407.636 344.3C408.212 346.052 408.5 348.044 408.5 350.276V374H397.34V350.276C397.34 346.412 395.684 344.48 392.372 344.48C390.86 344.48 389.6 344.984 388.592 345.992C387.608 346.976 387.116 348.404 387.116 350.276V374H375.956V350.276C375.956 348.14 375.536 346.64 374.696 345.776C373.856 344.912 372.62 344.48 370.988 344.48C369.98 344.48 369.02 344.708 368.108 345.164C367.22 345.62 366.38 346.232 365.588 347V374H354.428ZM438.891 350.852C438.891 349.964 438.771 349.1 438.531 348.26C438.315 347.42 437.943 346.676 437.415 346.028C436.911 345.356 436.239 344.816 435.399 344.408C434.559 344 433.539 343.796 432.339 343.796C430.227 343.796 428.571 344.408 427.371 345.632C426.171 346.832 425.379 348.572 424.995 350.852H438.891ZM424.851 357.332C425.211 360.452 426.159 362.72 427.695 364.136C429.231 365.528 431.211 366.224 433.635 366.224C434.931 366.224 436.047 366.068 436.983 365.756C437.919 365.444 438.747 365.096 439.467 364.712C440.211 364.328 440.883 363.98 441.483 363.668C442.107 363.356 442.755 363.2 443.427 363.2C444.315 363.2 444.987 363.524 445.443 364.172L448.683 368.168C447.531 369.488 446.283 370.568 444.939 371.408C443.619 372.224 442.251 372.872 440.835 373.352C439.443 373.808 438.039 374.12 436.623 374.288C435.231 374.48 433.899 374.576 432.627 374.576C430.011 374.576 427.551 374.156 425.247 373.316C422.967 372.452 420.963 371.18 419.235 369.5C417.531 367.82 416.175 365.732 415.167 363.236C414.183 360.74 413.691 357.836 413.691 354.524C413.691 352.028 414.111 349.664 414.951 347.432C415.815 345.2 417.039 343.244 418.623 341.564C420.231 339.884 422.163 338.552 424.419 337.568C426.699 336.584 429.267 336.092 432.123 336.092C434.595 336.092 436.851 336.476 438.891 337.244C440.955 338.012 442.719 339.128 444.183 340.592C445.671 342.056 446.823 343.856 447.639 345.992C448.479 348.104 448.899 350.504 448.899 353.192C448.899 354.032 448.863 354.716 448.791 355.244C448.719 355.772 448.587 356.192 448.395 356.504C448.203 356.816 447.939 357.032 447.603 357.152C447.291 357.272 446.883 357.332 446.379 357.332H424.851ZM488.355 336.092C491.187 336.092 493.767 336.536 496.095 337.424C498.423 338.312 500.415 339.584 502.071 341.24C503.751 342.896 505.047 344.912 505.959 347.288C506.895 349.64 507.363 352.292 507.363 355.244C507.363 358.22 506.895 360.908 505.959 363.308C505.047 365.684 503.751 367.712 502.071 369.392C500.415 371.048 498.423 372.332 496.095 373.244C493.767 374.132 491.187 374.576 488.355 374.576C485.499 374.576 482.895 374.132 480.543 373.244C478.215 372.332 476.199 371.048 474.495 369.392C472.815 367.712 471.507 365.684 470.571 363.308C469.659 360.908 469.203 358.22 469.203 355.244C469.203 352.292 469.659 349.64 470.571 347.288C471.507 344.912 472.815 342.896 474.495 341.24C476.199 339.584 478.215 338.312 480.543 337.424C482.895 336.536 485.499 336.092 488.355 336.092ZM488.355 366.296C490.923 366.296 492.807 365.396 494.007 363.596C495.231 361.772 495.843 359.012 495.843 355.316C495.843 351.62 495.231 348.872 494.007 347.072C492.807 345.272 490.923 344.372 488.355 344.372C485.715 344.372 483.783 345.272 482.559 347.072C481.335 348.872 480.723 351.62 480.723 355.316C480.723 359.012 481.335 361.772 482.559 363.596C483.783 365.396 485.715 366.296 488.355 366.296ZM514.7 374V344.336L512.252 343.832C511.412 343.64 510.728 343.34 510.2 342.932C509.696 342.524 509.444 341.924 509.444 341.132V336.74H514.7V334.616C514.7 332.48 515.036 330.548 515.708 328.82C516.404 327.092 517.388 325.616 518.66 324.392C519.956 323.168 521.528 322.22 523.376 321.548C525.224 320.876 527.324 320.54 529.676 320.54C530.588 320.54 531.428 320.6 532.196 320.72C532.964 320.816 533.768 320.984 534.608 321.224L534.392 326.66C534.368 327.044 534.272 327.368 534.104 327.632C533.936 327.872 533.708 328.076 533.42 328.244C533.156 328.388 532.868 328.496 532.556 328.568C532.244 328.64 531.932 328.676 531.62 328.676C530.636 328.676 529.76 328.772 528.992 328.964C528.224 329.156 527.576 329.504 527.048 330.008C526.544 330.488 526.16 331.136 525.896 331.952C525.632 332.744 525.5 333.752 525.5 334.976V336.74H534.248V344.372H525.86V374H514.7ZM580.109 353.948L575.249 339.584C574.889 338.672 574.505 337.604 574.097 336.38C573.689 335.132 573.281 333.788 572.873 332.348C572.513 333.812 572.129 335.168 571.721 336.416C571.313 337.664 570.929 338.744 570.569 339.656L565.745 353.948H580.109ZM599.441 374H590.009C588.953 374 588.101 373.76 587.453 373.28C586.805 372.776 586.313 372.14 585.977 371.372L582.881 362.228H562.937L559.841 371.372C559.577 372.044 559.097 372.656 558.401 373.208C557.729 373.736 556.889 374 555.881 374H546.376L566.681 321.548H579.137L599.441 374ZM615.816 374H603.576V321.548H615.816V374Z" fill="black"/>
</svg>
